<svg width="602" height="743" viewBox="0 0 602 743" fill="none" xmlns="http://www.w3.org/2000/svg">
<path d="M476.259 392.918C476.322 393.052 476.431 393.159 476.565 393.222C476.7 393.284 476.852 393.297 476.995 393.26C477.138 393.222 477.264 393.135 477.35 393.015C477.437 392.895 477.478 392.748 477.468 392.6V144.046C477.466 143.759 477.403 143.476 477.284 143.216C477.166 142.956 476.993 142.724 476.779 142.537C476.565 142.35 476.314 142.212 476.043 142.132C475.772 142.051 475.487 142.031 475.208 142.072C399.636 152.577 332.627 185.142 273.417 233.02C256.163 246.984 241.478 262.434 229.36 279.369C229.154 279.659 229.035 280 229.016 280.355C228.997 280.71 229.079 281.062 229.252 281.372C229.426 281.682 229.683 281.936 229.995 282.106C230.307 282.275 230.661 282.353 231.015 282.33C249.065 281.056 271.857 278.828 289.779 281.247C302.555 282.945 316.572 285.81 331.831 289.842C332.089 289.91 332.325 290.041 332.519 290.224C332.713 290.407 332.858 290.636 332.94 290.89C333.022 291.143 333.04 291.413 332.991 291.675C332.941 291.937 332.827 292.182 332.659 292.389C321.729 305.886 311.744 319.744 302.703 333.963C249.606 417.387 209.655 506.128 182.851 600.185C182.594 601.103 182.04 601.911 181.276 602.486C180.511 603.06 179.577 603.37 178.617 603.368H2.16558C1.87587 603.368 1.58901 603.31 1.32214 603.197C1.05528 603.085 0.813857 602.919 0.611994 602.712C0.410132 602.504 0.25201 602.258 0.147047 601.988C0.0420836 601.718 -0.00758383 601.429 0.00093694 601.14C2.12316 516.909 19.1857 434.981 51.1887 355.355C97.3151 240.628 179.509 142.645 286.978 81.8754C316.71 65.0992 353.287 46.6041 389.959 34.7303C458.379 12.5319 528.136 0.955184 599.231 0.000185178C599.593 -0.00402656 599.952 0.063644 600.288 0.199337C600.624 0.335031 600.929 0.536038 601.187 0.790674C601.445 1.04531 601.649 1.34854 601.789 1.68278C601.928 2.01702 602 2.37559 602 2.7378V601.363C602 601.869 601.802 602.355 601.45 602.713C601.098 603.071 600.62 603.273 600.122 603.273H388.621C387.626 603.273 386.653 603.559 385.817 604.095C384.982 604.631 384.32 605.395 383.91 606.297L322.217 741.747C322.081 742.045 321.854 742.291 321.568 742.449C321.281 742.608 320.952 742.67 320.628 742.627C320.303 742.585 320.001 742.439 319.766 742.212C319.531 741.985 319.375 741.688 319.321 741.365C306.014 662.865 311.744 583.059 329.093 504.59C336.192 472.374 351.727 425.866 359.08 403.041C367.59 376.598 379.21 348.903 393.938 319.956C394.146 319.546 394.437 319.183 394.792 318.89C395.147 318.596 395.56 318.379 396.004 318.25C396.448 318.122 396.915 318.086 397.375 318.144C397.836 318.202 398.28 318.353 398.681 318.588C428.732 336.223 458.559 362.04 476.259 392.918Z" fill="#24D0FA"/>
</svg>
